<svg xmlns="http://www.w3.org/2000/svg" width="32" height="32"><path fill="#fea5b9" d="M15.467 13.547H23.2c.267 0 .587 0 .8.267.267.267.32.587.213.96-.32 1.813-.693 3.68-1.067 5.493a290.393 290.393 0 0 0-1.227 6.613c-.107.587-.213 1.227-.32 1.813-.107.427-.427.693-.853.693h-10.56c-.427 0-.8-.267-.853-.693-.267-1.333-.533-2.613-.747-3.947-.32-1.76-.693-3.573-1.013-5.333-.267-1.547-.587-3.093-.853-4.64-.16-.747.213-1.173 1.013-1.173 2.56-.107 5.12-.053 7.733-.053zm-5.92 6.773c0 .16.053.213.053.32l1.28 6.72c.053.16.107.213.267.213h8.693c.16 0 .267-.053.267-.213.267-1.547.587-3.04.853-4.587.16-.8.32-1.6.48-2.453-1.76 1.493-3.733 2.08-5.92 2.08-2.24 0-4.213-.587-5.973-2.08zm-.854-5.013v.16c0 .16.053.267.053.427.48 2.027 1.76 3.413 3.627 4.16 1.973.8 4 .8 5.973.053 1.76-.64 2.987-1.867 3.573-3.68.107-.373.16-.747.267-1.12H8.693zM8.8 5.76c-.16-.373-.373-.747-.48-1.067a4.147 4.147 0 0 1-.16-1.173c0-.48.373-.853.853-.853H21.92c.48 0 .853.373.853.853 0 .693-.107 1.387-.533 1.973a.78.78 0 0 0-.107.16c.213.32.48.587.64.907.427.8.32 1.813-.267 2.507s-1.493.96-2.347.747c-.427-.107-.747-.373-1.067-.693-.107-.107-.16-.107-.32-.053-.32.16-.587.267-.907.373-.107.053-.16.107-.16.267 0 .533 0 1.013-.16 1.493-.427 1.28-1.973 1.92-3.147 1.28-.853-.48-1.227-1.173-1.28-2.133v-.64c0-.16-.053-.213-.16-.267-.32-.107-.587-.267-.907-.373-.107-.053-.213-.053-.32.053-.32.32-.693.587-1.12.693-1.44.427-2.933-.853-2.827-2.347.053-.64.32-1.12.693-1.547.213-.053.267-.107.32-.16zm12.053-1.333H10.08c.213.32.373.587.533.853.267.48.267.853-.107 1.227a8.248 8.248 0 0 0-.64.693c-.16.16-.213.32-.16.533.053.427.533.587.853.32.267-.213.48-.48.693-.693.373-.373.747-.427 1.12-.16.587.373 1.227.64 1.867.853.533.16.693.427.747 1.013v1.333c0 .32.16.533.373.64.373.107.693-.16.693-.587V9.119c0-.64.16-.907.8-1.067s1.227-.427 1.813-.8c.427-.267.8-.213 1.173.16.213.213.427.427.587.64.16.16.32.213.48.213.213-.053.373-.16.427-.32.107-.213.053-.427-.107-.587-.213-.267-.48-.48-.693-.747a1.653 1.653 0 0 1-.267-.373c-.107-.32-.053-.587.107-.853.107-.373.32-.64.48-.96z"/></svg>