<svg xmlns="http://www.w3.org/2000/svg" width="32" height="32"><path fill="#fea5b9" d="M13.653 29.333v-7.467c0-.213-.053-.32-.213-.427a41.883 41.883 0 0 1-4.587-3.52c-1.387-1.28-2.667-2.72-3.573-4.427-1.173-2.293-1.387-4.64-.373-7.04.8-1.867 2.187-3.2 4.267-3.627 2.027-.48 3.84.053 5.387 1.493.32.267.587.587.853.907.373.427.853.427 1.227 0 .533-.693 1.173-1.333 1.973-1.76 1.227-.693 2.507-.96 3.84-.693 2.507.427 4.107 1.973 4.907 4.32.747 2.24.48 4.373-.64 6.453-.907 1.707-2.133 3.093-3.573 4.373-1.44 1.333-2.987 2.453-4.587 3.52-.16.107-.213.213-.213.427v7.467h-4.693zM12.16 11.947c-.053 0-.053 0 0 0-.053.267-.053.533-.053.747 0 .533.32.907.8.907.427 0 .747-.373.747-.853v-1.493c.053-1.173.853-2.133 1.92-2.293 1.44-.213 2.72.8 2.773 2.293v1.547c0 .373.16.64.48.747.533.213 1.013-.16 1.067-.747v-1.547c.053-1.013.48-1.707 1.387-2.133.907-.373 1.707-.267 2.453.373.533.427.747 1.013.8 1.707.053.48.32.8.747.8.213 0 .373-.053.427-.267.107-.427.267-.907.32-1.333.213-1.867-.16-3.52-1.493-4.907a4.203 4.203 0 0 0-5.333-.587c-.48.32-.907.693-1.227 1.173-1.013 1.387-2.987 1.387-3.947 0-.053-.107-.107-.16-.213-.267-.533-.587-1.12-1.067-1.867-1.333-2.08-.693-4.32.16-5.333 2.133-.853 1.653-.907 3.307-.373 5.067.107.32.267.373.587.32.373-.107.533-.373.587-.853.107-1.173.96-2.08 2.133-2.24 1.12-.107 2.187.587 2.453 1.707.107.48.107.907.16 1.333zM7.2 13.6c.587.907 1.28 1.707 2.08 2.507 1.6 1.6 3.467 2.987 5.333 4.213.907.587 1.867.587 2.773 0l1.12-.8c1.813-1.28 3.52-2.613 5.013-4.32.48-.533.907-1.12 1.333-1.653-.053-.053-.053-.053-.107-.053-1.12-.373-1.707-1.12-1.76-2.293 0-.32-.213-.533-.48-.693-.533-.213-1.013.16-1.067.747v1.6c-.053 1.28-1.067 2.293-2.347 2.293s-2.293-1.013-2.347-2.293v-1.547c0-.16-.053-.373-.107-.533-.16-.267-.533-.427-.853-.32s-.587.373-.587.747v1.547c0 1.173-.853 2.133-1.92 2.293-1.493.267-2.72-.8-2.773-2.293v-1.547c0-.32-.16-.587-.427-.693s-.533-.107-.8.107c-.213.16-.267.427-.267.693 0 .64-.267 1.227-.8 1.653-.32.32-.693.48-1.013.64zm8.053 8.747v5.387h1.493v-5.387h-1.493z"/></svg>