<svg aria-hidden="true" style="width:0;height:0;position:absolute;overflow:hidden" xmlns="http://www.w3.org/2000/svg"><defs><symbol id="icon-facebook" viewBox="0 0 16 32"><path d="M14.143 15.972h-4.034v14.865H3.997V15.972H1.09v-5.224h2.907V7.367c0-2.418 1.142-6.203 6.166-6.203l4.527.019v5.071h-3.285c-.539 0-1.296.271-1.296 1.424v3.075h4.567l-.534 5.219z"/></symbol><symbol id="icon-telegram" viewBox="0 0 44 32"><path d="m17.343 21.048-.675 8.86c.966 0 1.384-.387 1.885-.852l4.527-4.038 9.381 6.412c1.72.895 2.933.424 3.397-1.477l6.157-26.929.002-.002c.546-2.374-.92-3.302-2.596-2.72L3.227 13.235c-2.47.895-2.433 2.18-.42 2.762l9.253 2.686L33.554 6.131c1.011-.625 1.931-.279 1.175.346l-17.386 14.57z"/></symbol><symbol id="icon-github" viewBox="0 0 32 32"><path d="M16 0C7.212 0 0 7.212 0 16c0 7.499 5.262 14.312 12.25 16v-5.293c-.692.152-1.33.156-2.034-.052-.946-.279-1.714-.909-2.284-1.869-.364-.613-1.008-1.278-1.68-1.23l-.165-1.868c1.453-.124 2.711.886 3.457 2.14.332.558.713.884 1.203 1.029.473.14.982.072 1.574-.137.149-1.186.692-1.63 1.102-2.255v-.001c-4.167-.622-5.828-2.832-6.488-4.578-.874-2.317-.405-5.212 1.14-7.041.03-.036.084-.129.063-.194-.708-2.139.155-3.909.187-4.097.817.242.95-.243 3.551 1.337l.449.27c.188.112.129.048.317.034A13.544 13.544 0 0 1 16 7.723c1.136.015 2.273.178 3.404.484l.145.015c-.013-.002.04-.009.127-.062 3.248-1.968 3.132-1.324 4.003-1.608.032.188.883 1.987.182 4.099-.095.291 2.816 2.956 1.203 7.235-.659 1.746-2.32 3.957-6.487 4.578v.001c.534.814 1.176 1.247 1.173 2.927V32C26.738 30.312 32 23.499 32 16c0-8.788-7.212-16-16-16z"/></symbol><symbol id="icon-logo" viewBox="0 0 32 32"><path fill="#d41443" d="M29.493 16.853c0 7.364-5.97 13.333-13.333 13.333S2.827 24.216 2.827 16.853c0-7.364 5.97-13.333 13.333-13.333s13.333 5.97 13.333 13.333z"/><path fill="none" stroke="#fff" style="stroke:var(--color1,#fff)" stroke-linejoin="round" stroke-miterlimit="10" stroke-width="1.6" d="M23.893 17.227H8.426c-.8 0-1.44.64-1.44 1.44s.64 1.44 1.44 1.44h8.64v2.56c0 .8.64 1.44 1.44 1.44s1.44-.64 1.44-1.44v-2.56h3.947c.8 0 1.44-.64 1.44-1.44 0-.747-.64-1.44-1.44-1.44zm-14.72.266v-3.84"/><path fill="none" stroke="#fff" style="stroke:var(--color1,#fff)" stroke-linejoin="round" stroke-miterlimit="10" stroke-width="1.6" d="M23.147 20.427v4.107c0 1.227-1.013 2.293-2.293 2.293h-9.44c-1.227 0-2.293-1.013-2.293-2.293v-4.587m14.026-6.24v3.84m-10.987 9.28v3.093m7.733-3.093v3.093M9.173 14.293c0-3.84 3.147-6.987 6.987-6.987s6.987 3.147 6.987 6.987"/><path fill="none" stroke="#fff" style="stroke:var(--color1,#fff)" stroke-linejoin="round" stroke-miterlimit="10" stroke-width="1.6" d="M21.387 9.6c0 1.973-2.347 3.52-5.28 3.52s-5.28-1.6-5.28-3.52"/></symbol><symbol id="icon-arrow" viewBox="0 0 20 20"><path d="m16.172 9-6.071-6.071 1.414-1.414L20 10l-8.485 8.485-1.414-1.414L16.172 11H0V9z"/></symbol><symbol id="icon-button-bracket"><path fill="none" d="m1.616 1 4.428 4-4.428 4" stroke-width="2" stroke-linecap="round" stroke-linejoin="round"/></symbol><symbol id="icon-home" viewBox="0 0 13 12"><path d="M12.845 5.855a.591.591 0 0 0-.049-.846L7.256.162a.69.69 0 0 0-.9.01L.798 5.268a.588.588 0 0 0-.027.844l.14.145c.23.24.604.27.834.064l.415-.372v5.446c0 .335.27.605.605.605H4.93c.334 0 .605-.27.605-.605v-3.81H8.3v3.81c-.005.334.234.605.568.605h2.296c.334 0 .604-.27.604-.605v-5.37l.257.226c.141.124.438.024.662-.223l.158-.173Z"/></symbol><symbol id="icon-ellipse" viewBox="0 0 12 12"><circle cx="6" cy="6" r="6"/></symbol><symbol id="icon-person-modal-window" viewBox="0 0 32 32"><path d="M16 16a5.333 5.333 0 1 0 0-10.666A5.333 5.333 0 1 0 16 16zm0 2.667c-3.561 0-10.667 1.787-10.667 5.333v1.333c0 .732.599 1.333 1.333 1.333h18.667c.732 0 1.333-.601 1.333-1.333V24c0-3.547-7.108-5.333-10.667-5.333z"/></symbol><symbol id="icon-phone-modal-window" viewBox="0 0 32 32"><path d="m24.882 19.774-3.268-.373a2.552 2.552 0 0 0-2.11.732l-2.368 2.368c-3.669-1.894-6.585-4.81-8.427-8.372l-.051-.108 2.382-2.377a2.552 2.552 0 0 0 .731-2.122l.001.012-.373-3.243a2.578 2.578 0 0 0-2.557-2.276H6.613c-1.454 0-2.663 1.209-2.574 2.661.683 10.987 9.47 19.762 20.444 20.444 1.452.089 2.663-1.12 2.663-2.574v-2.238a2.549 2.549 0 0 0-2.253-2.532l-.012-.001z"/></symbol><symbol id="icon-email-modal-window" viewBox="0 0 32 32"><path d="M26.667 5.333H5.334A2.662 2.662 0 0 0 2.682 8l-.014 16c0 1.467 1.2 2.667 2.667 2.667h21.333c1.467 0 2.667-1.2 2.667-2.667V8c0-1.467-1.2-2.667-2.667-2.667zm-.534 5.668-9.426 5.892a1.343 1.343 0 0 1-1.421-.004l.006.003L5.866 11A1.133 1.133 0 1 1 7.07 9.083l-.004-.003 8.933 5.586 8.933-5.588a1.132 1.132 0 1 1 1.204 1.916l-.005.003z"/></symbol><symbol id="icon-ice-cream-modal-window" viewBox="0 0 16 32"><path d="M6.94 32h1.706l6.37-16.065c-6.081.042-8.737-.247-14.169 0L6.941 32zm4.203-26.852c-.063-.701-.693-1.185-1.263-1.622a6.373 6.373 0 0 1-.729-.617c-.542-.565-.75-1.174-.044-2.031A4.062 4.062 0 0 0 7.498.834a3.36 3.36 0 0 0-1.479.654c-.417.328-.75.763-.956 1.292-.24.612-.31 1.346-.148 2.19a.385.385 0 0 1-.318.448h-.013a2.843 2.843 0 0 0-.852.263 2.309 2.309 0 0 0-1.052 1.07c-.219.461-.294 1.008-.206 1.589.057.372.185.758.388 1.141a.385.385 0 0 1-.258.552c-.586.161-1.044.44-1.354.797a1.854 1.854 0 0 0-.422.831c-.065.31-.055.643.044.987.159.56.542 1.146 1.177 1.703h12.25c.547-.289.917-.688 1.135-1.138.24-.492.299-1.047.214-1.586a3.108 3.108 0 0 0-.693-1.5 2.68 2.68 0 0 0-1.529-.914c-.008 0-.013-.003-.021-.005-.513.148-1.091.398-1.701.664-1.794.779-3.844 1.667-5.779.703-.195-.096-.271-.331-.172-.521s.336-.266.531-.169c1.602.799 3.466-.01 5.102-.721.63-.273 1.229-.534 1.792-.695.146-.784.057-1.375-.211-1.815-.26-.424-.708-.727-1.292-.938-.638.549-1.333.938-2.021 1.128-.721.198-1.438.174-2.081-.104-.198-.086-.289-.315-.201-.51s.323-.281.521-.195c.466.203 1 .216 1.549.065.57-.151 1.151-.479 1.698-.948zM6.042 3.841c.169 0 .307.135.307.302s-.138.302-.307.302a.305.305 0 0 1-.307-.302c0-.169.138-.302.307-.302zm1.916 8.039c.193 0 .349.154.349.341 0 .19-.156.341-.349.341s-.349-.154-.349-.341c0-.188.156-.341.349-.341zm-4.393-.607c.193 0 .349.154.349.341 0 .19-.156.341-.349.341s-.349-.154-.349-.341c0-.188.156-.341.349-.341zm9.909.329c.193 0 .349.154.349.341 0 .19-.156.341-.349.341s-.349-.154-.349-.341c0-.188.156-.341.349-.341zm-7.161 1.276c-.068-.081-.057-.201.023-.268s.203-.057.273.023l.448.521c.068.081.057.201-.023.268s-.203.057-.273-.023l-.448-.521zm-4.394-.607c-.07-.081-.057-.201.023-.268s.203-.057.273.023l.448.521c.068.081.057.201-.023.268s-.203.057-.273-.023l-.448-.521zm9.909.331c-.068-.081-.057-.201.023-.268s.203-.057.273.023l.448.521c.068.081.057.201-.023.268s-.203.057-.273-.023l-.448-.521zM10.37 2.919c.68.521 1.427 1.096 1.549 2.063.763.268 1.362.677 1.729 1.276.362.589.49 1.341.32 2.299.641.206 1.18.591 1.594 1.078.453.534.755 1.19.867 1.872a3.38 3.38 0 0 1-.279 2.039c-.297.612-.805 1.148-1.549 1.523a.397.397 0 0 1-.206.055H1.903a.406.406 0 0 1-.255-.091C.817 14.345.32 13.588.112 12.856a2.775 2.775 0 0 1-.055-1.349c.094-.432.294-.831.591-1.172.328-.378.773-.69 1.323-.901a4.509 4.509 0 0 1-.279-.979 3.444 3.444 0 0 1 .273-2.029 3.08 3.08 0 0 1 1.404-1.43c.219-.109.453-.201.706-.266-.104-.839-.005-1.589.245-2.229A3.785 3.785 0 0 1 5.521.884a4.157 4.157 0 0 1 1.833-.81 4.927 4.927 0 0 1 2.612.253.383.383 0 0 1 .128.643c-.747.685-.688 1.078-.37 1.411.169.169.401.349.646.536zM6.859 28.214l-.599-1.615 3.815-.867-.742 1.919-2.474.563zm-1.226-3.31-.599-1.615 6.565-1.49-.742 1.919-5.224 1.185zm-1.227-3.308-.599-1.615 9.315-2.115-.742 1.919-7.974 1.81z"/></symbol><symbol id="icon-cross-modal-window" viewBox="0 0 32 32"><path d="M31.708 25.708 22 16l9.708-9.708a1 1 0 0 0 0-1.414L27.122.292a1 1 0 0 0-1.414-.001L16 9.999 6.292.291a.998.998 0 0 0-1.414.001L.292 4.878a1 1 0 0 0 0 1.414L10 16 .292 25.708a.999.999 0 0 0 0 1.414l4.586 4.586a1 1 0 0 0 1.414 0L16 22l9.708 9.708a1 1 0 0 0 1.414 0l4.586-4.586a.999.999 0 0 0 0-1.414z"/></symbol><symbol id="icon-appls" viewBox="0 0 32 32"><path d="M20.8 29.493H7.413l-.053-.053c-.32-.16-.48-.427-.533-.8a14.707 14.707 0 0 1-.267-1.493c-.267-1.44-.587-2.933-.853-4.373-.16-.907-.373-1.813-.533-2.72-.32-1.707-.64-3.36-.96-5.067l-.48-2.4c-.053-.16-.053-.373-.053-.533 0-.32.16-.587.427-.747.107-.053.107-.107.107-.213s0-.213-.053-.32c0-.48.053-.907.267-1.333.16-.373.427-.64.693-.907.533-.533 1.173-.853 1.92-1.013.213-.053.213-.053.107-.213-.107-.32-.267-.64-.373-.96-.267-.8-.32-1.653-.213-2.507.053-.267.107-.48.267-.693.267-.267.587-.427 1.013-.16.373.213.533.48.48.907 0 .16-.053.373-.053.533-.053.64.053 1.227.32 1.813 0 .053.053.053.053.107.053.053.053.053.107 0 .053 0 .053-.053.107-.053.16-.16.32-.32.48-.427.427-.373.907-.693 1.493-.853.587-.213 1.12-.213 1.707-.053.533.16 1.013.427 1.44.853.16.16.373.373.533.587.107.107.16.16.32.16h.64c.427 0 .8.053 1.173.213.053 0 .107.053.213.053.053 0 .107 0 .107-.053s.053-.16.053-.213c.053-.32.107-.587.213-.907.213-.8.587-1.493 1.12-2.133.16-.16.32-.32.48-.427.107-.053.267-.107.373-.16.213 0 .427.107.587.213.16.053.267.32.267.587s-.107.48-.267.64l-.213.213c-.48.587-.693 1.227-.853 1.973v.053h.053c.053 0 .107 0 .16-.053.373-.107.693-.16 1.067-.213.587 0 1.173.053 1.707.32.587.267 1.067.64 1.333 1.227.373.693.533 1.387.48 2.133 0 .32-.053.587-.053.907 0 .213 0 .213.213.267.053 0 .107 0 .16.053.16.053.267.107.373.213.213.213.32.533.267.8-.107.693-.267 1.333-.373 2.027-.32 1.707-.64 3.413-1.013 5.12l-.16.8c-.053.16 0 .16.107.213.16.053.373.107.533.16h.107c.053 0 .107 0 .107-.053s.053-.16.053-.213c.107-.64.32-1.28.587-1.867.213-.427.48-.8.853-1.12a.882.882 0 0 1 .8-.267c.533.107.907.693.64 1.227-.053.107-.16.213-.267.32-.107.16-.213.267-.32.373-.32.427-.48.96-.587 1.44v.107h.16c.427-.16.907-.213 1.387-.16.373 0 .693.053 1.013.213.8.267 1.387.8 1.707 1.6.32.747.373 1.547.267 2.347-.053.693-.267 1.387-.587 2.027s-.693 1.227-1.227 1.707c-.427.373-.907.64-1.493.8s-1.12.16-1.707.053c-.267-.053-.48-.053-.747-.053-.267.053-.533 0-.8.053-.48.053-.96 0-1.387-.16-.267-.107-.48-.16-.747-.267-.16-.053-.16-.053-.213.107a.68.68 0 0 1-.373.48c.16.107.053.16 0 .213zm-6.613-16.48h-8.32c-.053 0-.107.053-.107.107v.16c.053.267.107.587.16.853.213.747.533 1.44.96 2.133.587.853 1.333 1.493 2.187 2.027.64.373 1.28.64 1.973.853.8.267 1.547.373 2.4.427.693.053 1.333 0 2.027-.053 1.173-.16 2.293-.427 3.36-1.013.747-.427 1.387-.907 1.973-1.547.373-.427.693-.907.96-1.387a6.253 6.253 0 0 0 .693-2.133c0-.107.053-.213.053-.267 0-.107 0-.107-.107-.107h-.213c-2.613-.053-5.28-.053-8-.053zM6.72 18.667c-.053.053-.053.107 0 .16.107.64.267 1.28.373 1.92.16.907.373 1.813.533 2.72.267 1.333.533 2.667.747 4 .053.267 0 .267.32.267H19.68c.107 0 .107 0 .16-.107.053-.16.053-.267.107-.427.053-.213 0-.373-.107-.533-.107-.213-.16-.427-.267-.64-.267-.8-.427-1.6-.373-2.453.053-.427.107-.853.267-1.28.213-.533.533-.96 1.067-1.28.16-.107.32-.16.48-.267.107-.053.16-.107.16-.213.107-.533.213-1.013.32-1.547v-.107h-.053c-.053.053-.107.107-.16.107-.64.533-1.387.96-2.133 1.333-1.44.64-2.933.96-4.48 1.013-.693 0-1.44 0-2.133-.107a13.843 13.843 0 0 1-2.133-.48 9.661 9.661 0 0 1-3.52-2.027c-.053 0-.107 0-.16-.053zM28.533 24v-.213c0-.32-.053-.587-.16-.907a.88.88 0 0 0-.533-.533c-.107-.053-.213-.053-.32-.107-.427-.107-.853-.053-1.28.16-.267.16-.48.32-.64.587-.107.16-.213.267-.32.373-.32.213-.64.267-.96 0a1.24 1.24 0 0 1-.373-.373c-.213-.32-.48-.587-.907-.693a2.636 2.636 0 0 0-1.12-.053c-.427.053-.693.32-.8.693-.16.48-.213 1.013-.16 1.493.107.8.427 1.493.853 2.133.32.427.747.747 1.28.853.373.107.8.053 1.173-.053.267-.107.533-.107.853 0 .16.053.373.107.533.107.693.053 1.333-.16 1.76-.693.747-.747 1.12-1.707 1.12-2.773zM13.28 11.2c0 .053 0 .053 0 0h.427c.16 0 .213-.053.267-.213.053-.213.053-.427.107-.64.053-.533-.107-1.067-.213-1.6-.16-.533-.373-1.013-.747-1.44-.213-.213-.373-.427-.64-.587a1.072 1.072 0 0 0-.587-.16c-.533.053-.96.267-1.333.64-.32.373-.48.8-.48 1.333 0 .107 0 .213-.053.267-.107.427-.427.747-.853.693-.16 0-.267-.053-.427-.107a2.133 2.133 0 0 0-.8-.16c-.747 0-1.28.32-1.707.907-.16.267-.213.587-.16.853.053.107.107.213.213.213h6.987zm2.187-3.04c0 .053 0 .107.053.16.053.16.107.32.107.48.16.693.213 1.387.107 2.08 0 .053 0 .107-.053.213 0 .107 0 .107.107.107h5.707c.16 0 .16 0 .213-.16.053-.267.053-.48.107-.747.053-.48 0-.907-.213-1.387a1.007 1.007 0 0 0-.64-.587c-.16-.053-.32-.107-.48-.107-.693-.107-1.28.053-1.76.587-.107.107-.16.213-.267.32s-.213.267-.32.32c-.32.213-.693.213-.96-.053l-.32-.32c-.32-.427-.747-.747-1.28-.853.053-.053 0-.053-.107-.053z"/></symbol><symbol id="icon-bucket" viewBox="0 0 32 32"><path d="M15.467 13.547H23.2c.267 0 .587 0 .8.267.267.267.32.587.213.96-.32 1.813-.693 3.68-1.067 5.493a290.393 290.393 0 0 0-1.227 6.613c-.107.587-.213 1.227-.32 1.813-.107.427-.427.693-.853.693h-10.56c-.427 0-.8-.267-.853-.693-.267-1.333-.533-2.613-.747-3.947-.32-1.76-.693-3.573-1.013-5.333-.267-1.547-.587-3.093-.853-4.64-.16-.747.213-1.173 1.013-1.173 2.56-.107 5.12-.053 7.733-.053zm-5.92 6.773c0 .16.053.213.053.32l1.28 6.72c.053.16.107.213.267.213h8.693c.16 0 .267-.053.267-.213.267-1.547.587-3.04.853-4.587.16-.8.32-1.6.48-2.453-1.76 1.493-3.733 2.08-5.92 2.08-2.24 0-4.213-.587-5.973-2.08zm-.854-5.013v.16c0 .16.053.267.053.427.48 2.027 1.76 3.413 3.627 4.16 1.973.8 4 .8 5.973.053 1.76-.64 2.987-1.867 3.573-3.68.107-.373.16-.747.267-1.12H8.693zM8.8 5.76c-.16-.373-.373-.747-.48-1.067a4.147 4.147 0 0 1-.16-1.173c0-.48.373-.853.853-.853H21.92c.48 0 .853.373.853.853 0 .693-.107 1.387-.533 1.973a.78.78 0 0 0-.107.16c.213.32.48.587.64.907.427.8.32 1.813-.267 2.507s-1.493.96-2.347.747c-.427-.107-.747-.373-1.067-.693-.107-.107-.16-.107-.32-.053-.32.16-.587.267-.907.373-.107.053-.16.107-.16.267 0 .533 0 1.013-.16 1.493-.427 1.28-1.973 1.92-3.147 1.28-.853-.48-1.227-1.173-1.28-2.133v-.64c0-.16-.053-.213-.16-.267-.32-.107-.587-.267-.907-.373-.107-.053-.213-.053-.32.053-.32.32-.693.587-1.12.693-1.44.427-2.933-.853-2.827-2.347.053-.64.32-1.12.693-1.547.213-.053.267-.107.32-.16zm12.053-1.333H10.08c.213.32.373.587.533.853.267.48.267.853-.107 1.227a8.248 8.248 0 0 0-.64.693c-.16.16-.213.32-.16.533.053.427.533.587.853.32.267-.213.48-.48.693-.693.373-.373.747-.427 1.12-.16.587.373 1.227.64 1.867.853.533.16.693.427.747 1.013v1.333c0 .32.16.533.373.64.373.107.693-.16.693-.587V9.119c0-.64.16-.907.8-1.067s1.227-.427 1.813-.8c.427-.267.8-.213 1.173.16.213.213.427.427.587.64.16.16.32.213.48.213.213-.053.373-.16.427-.32.107-.213.053-.427-.107-.587-.213-.267-.48-.48-.693-.747a1.653 1.653 0 0 1-.267-.373c-.107-.32-.053-.587.107-.853.107-.373.32-.64.48-.96z"/></symbol><symbol id="icon-heart" viewBox="0 0 32 32"><path d="M13.653 29.333v-7.467c0-.213-.053-.32-.213-.427a41.883 41.883 0 0 1-4.587-3.52c-1.387-1.28-2.667-2.72-3.573-4.427-1.173-2.293-1.387-4.64-.373-7.04.8-1.867 2.187-3.2 4.267-3.627 2.027-.48 3.84.053 5.387 1.493.32.267.587.587.853.907.373.427.853.427 1.227 0 .533-.693 1.173-1.333 1.973-1.76 1.227-.693 2.507-.96 3.84-.693 2.507.427 4.107 1.973 4.907 4.32.747 2.24.48 4.373-.64 6.453-.907 1.707-2.133 3.093-3.573 4.373-1.44 1.333-2.987 2.453-4.587 3.52-.16.107-.213.213-.213.427v7.467h-4.693zM12.16 11.947c-.053 0-.053 0 0 0-.053.267-.053.533-.053.747 0 .533.32.907.8.907.427 0 .747-.373.747-.853v-1.493c.053-1.173.853-2.133 1.92-2.293 1.44-.213 2.72.8 2.773 2.293v1.547c0 .373.16.64.48.747.533.213 1.013-.16 1.067-.747v-1.547c.053-1.013.48-1.707 1.387-2.133.907-.373 1.707-.267 2.453.373.533.427.747 1.013.8 1.707.053.48.32.8.747.8.213 0 .373-.053.427-.267.107-.427.267-.907.32-1.333.213-1.867-.16-3.52-1.493-4.907a4.203 4.203 0 0 0-5.333-.587c-.48.32-.907.693-1.227 1.173-1.013 1.387-2.987 1.387-3.947 0-.053-.107-.107-.16-.213-.267-.533-.587-1.12-1.067-1.867-1.333-2.08-.693-4.32.16-5.333 2.133-.853 1.653-.907 3.307-.373 5.067.107.32.267.373.587.32.373-.107.533-.373.587-.853.107-1.173.96-2.08 2.133-2.24 1.12-.107 2.187.587 2.453 1.707.107.48.107.907.16 1.333zM7.2 13.6c.587.907 1.28 1.707 2.08 2.507 1.6 1.6 3.467 2.987 5.333 4.213.907.587 1.867.587 2.773 0l1.12-.8c1.813-1.28 3.52-2.613 5.013-4.32.48-.533.907-1.12 1.333-1.653-.053-.053-.053-.053-.107-.053-1.12-.373-1.707-1.12-1.76-2.293 0-.32-.213-.533-.48-.693-.533-.213-1.013.16-1.067.747v1.6c-.053 1.28-1.067 2.293-2.347 2.293s-2.293-1.013-2.347-2.293v-1.547c0-.16-.053-.373-.107-.533-.16-.267-.533-.427-.853-.32s-.587.373-.587.747v1.547c0 1.173-.853 2.133-1.92 2.293-1.493.267-2.72-.8-2.773-2.293v-1.547c0-.32-.16-.587-.427-.693s-.533-.107-.8.107c-.213.16-.267.427-.267.693 0 .64-.267 1.227-.8 1.653-.32.32-.693.48-1.013.64zm8.053 8.747v5.387h1.493v-5.387h-1.493z"/></symbol><symbol id="icon-burger" viewBox="0 0 46 32"><path fill="none" stroke-width="2.286" d="M0 2.286h45.714M0 16h45.714M0 29.714h45.714"/></symbol><symbol id="icon-cross" viewBox="0 0 32 32"><path fill="none" stroke-width="2" d="m2.52 2 26.96 28M2 29.48 30 2.52"/></symbol><symbol id="icon-arrow-home" viewBox="0 0 16 16"><path d="m3 9.4 5-5 5 5-1.4 1.4L8 7.2l-3.6 3.6z"/><path d="M15 8c0 3.9-3.1 7-7 7s-7-3.1-7-7 3.1-7 7-7 7 3.1 7 7zm1 0c0-4.4-3.6-8-8-8S0 3.6 0 8s3.6 8 8 8 8-3.6 8-8z"/></symbol></defs></svg>