<!-- Generated by IcoMoon.io -->
<svg version="1.1" xmlns="http://www.w3.org/2000/svg" width="32" height="32" viewBox="0 0 32 32">
<title>appls</title>
<path fill="#fea5b9" d="M20.8 29.493h-13.387l-0.053-0.053c-0.32-0.16-0.48-0.427-0.533-0.8-0.107-0.48-0.213-1.013-0.267-1.493-0.267-1.44-0.587-2.933-0.853-4.373-0.16-0.907-0.373-1.813-0.533-2.72-0.32-1.707-0.64-3.36-0.96-5.067l-0.48-2.4c-0.053-0.16-0.053-0.373-0.053-0.533 0-0.32 0.16-0.587 0.427-0.747 0.107-0.053 0.107-0.107 0.107-0.213s0-0.213-0.053-0.32c0-0.48 0.053-0.907 0.267-1.333 0.16-0.373 0.427-0.64 0.693-0.907 0.533-0.533 1.173-0.853 1.92-1.013 0.213-0.053 0.213-0.053 0.107-0.213-0.107-0.32-0.267-0.64-0.373-0.96-0.267-0.8-0.32-1.653-0.213-2.507 0.053-0.267 0.107-0.48 0.267-0.693 0.267-0.267 0.587-0.427 1.013-0.16 0.373 0.213 0.533 0.48 0.48 0.907 0 0.16-0.053 0.373-0.053 0.533-0.053 0.64 0.053 1.227 0.32 1.813 0 0.053 0.053 0.053 0.053 0.107 0.053 0.053 0.053 0.053 0.107 0 0.053 0 0.053-0.053 0.107-0.053 0.16-0.16 0.32-0.32 0.48-0.427 0.427-0.373 0.907-0.693 1.493-0.853 0.587-0.213 1.12-0.213 1.707-0.053 0.533 0.16 1.013 0.427 1.44 0.853 0.16 0.16 0.373 0.373 0.533 0.587 0.107 0.107 0.16 0.16 0.32 0.16h0.64c0.427 0 0.8 0.053 1.173 0.213 0.053 0 0.107 0.053 0.213 0.053 0.053 0 0.107 0 0.107-0.053s0.053-0.16 0.053-0.213c0.053-0.32 0.107-0.587 0.213-0.907 0.213-0.8 0.587-1.493 1.12-2.133 0.16-0.16 0.32-0.32 0.48-0.427 0.107-0.053 0.267-0.107 0.373-0.16 0.213 0 0.427 0.107 0.587 0.213 0.16 0.053 0.267 0.32 0.267 0.587s-0.107 0.48-0.267 0.64l-0.213 0.213c-0.48 0.587-0.693 1.227-0.853 1.973v0.053h0.053c0.053 0 0.107 0 0.16-0.053 0.373-0.107 0.693-0.16 1.067-0.213 0.587 0 1.173 0.053 1.707 0.32 0.587 0.267 1.067 0.64 1.333 1.227 0.373 0.693 0.533 1.387 0.48 2.133 0 0.32-0.053 0.587-0.053 0.907 0 0.213 0 0.213 0.213 0.267 0.053 0 0.107 0 0.16 0.053 0.16 0.053 0.267 0.107 0.373 0.213 0.213 0.213 0.32 0.533 0.267 0.8-0.107 0.693-0.267 1.333-0.373 2.027-0.32 1.707-0.64 3.413-1.013 5.12l-0.16 0.8c-0.053 0.16 0 0.16 0.107 0.213 0.16 0.053 0.373 0.107 0.533 0.16h0.107c0.053 0 0.107 0 0.107-0.053s0.053-0.16 0.053-0.213c0.107-0.64 0.32-1.28 0.587-1.867 0.213-0.427 0.48-0.8 0.853-1.12 0.213-0.213 0.48-0.32 0.8-0.267 0.533 0.107 0.907 0.693 0.64 1.227-0.053 0.107-0.16 0.213-0.267 0.32-0.107 0.16-0.213 0.267-0.32 0.373-0.32 0.427-0.48 0.96-0.587 1.44v0.107h0.16c0.427-0.16 0.907-0.213 1.387-0.16 0.373 0 0.693 0.053 1.013 0.213 0.8 0.267 1.387 0.8 1.707 1.6 0.32 0.747 0.373 1.547 0.267 2.347-0.053 0.693-0.267 1.387-0.587 2.027s-0.693 1.227-1.227 1.707c-0.427 0.373-0.907 0.64-1.493 0.8s-1.12 0.16-1.707 0.053c-0.267-0.053-0.48-0.053-0.747-0.053-0.267 0.053-0.533 0-0.8 0.053-0.48 0.053-0.96 0-1.387-0.16-0.267-0.107-0.48-0.16-0.747-0.267-0.16-0.053-0.16-0.053-0.213 0.107-0.053 0.213-0.16 0.373-0.373 0.48 0.16 0.107 0.053 0.16 0 0.213zM14.187 13.013h-8.32c-0.053 0-0.107 0.053-0.107 0.107v0.16c0.053 0.267 0.107 0.587 0.16 0.853 0.213 0.747 0.533 1.44 0.96 2.133 0.587 0.853 1.333 1.493 2.187 2.027 0.64 0.373 1.28 0.64 1.973 0.853 0.8 0.267 1.547 0.373 2.4 0.427 0.693 0.053 1.333 0 2.027-0.053 1.173-0.16 2.293-0.427 3.36-1.013 0.747-0.427 1.387-0.907 1.973-1.547 0.373-0.427 0.693-0.907 0.96-1.387 0.373-0.693 0.587-1.387 0.693-2.133 0-0.107 0.053-0.213 0.053-0.267 0-0.107 0-0.107-0.107-0.107h-0.213c-2.613-0.053-5.28-0.053-8-0.053zM6.72 18.667c-0.053 0.053-0.053 0.107 0 0.16 0.107 0.64 0.267 1.28 0.373 1.92 0.16 0.907 0.373 1.813 0.533 2.72 0.267 1.333 0.533 2.667 0.747 4 0.053 0.267 0 0.267 0.32 0.267h10.987c0.107 0 0.107 0 0.16-0.107 0.053-0.16 0.053-0.267 0.107-0.427 0.053-0.213 0-0.373-0.107-0.533-0.107-0.213-0.16-0.427-0.267-0.64-0.267-0.8-0.427-1.6-0.373-2.453 0.053-0.427 0.107-0.853 0.267-1.28 0.213-0.533 0.533-0.96 1.067-1.28 0.16-0.107 0.32-0.16 0.48-0.267 0.107-0.053 0.16-0.107 0.16-0.213 0.107-0.533 0.213-1.013 0.32-1.547v-0.107h-0.053c-0.053 0.053-0.107 0.107-0.16 0.107-0.64 0.533-1.387 0.96-2.133 1.333-1.44 0.64-2.933 0.96-4.48 1.013-0.693 0-1.44 0-2.133-0.107-0.747-0.107-1.44-0.267-2.133-0.48-1.333-0.427-2.507-1.12-3.52-2.027-0.053 0-0.107 0-0.16-0.053zM28.533 24v-0.213c0-0.32-0.053-0.587-0.16-0.907-0.107-0.267-0.267-0.427-0.533-0.533-0.107-0.053-0.213-0.053-0.32-0.107-0.427-0.107-0.853-0.053-1.28 0.16-0.267 0.16-0.48 0.32-0.64 0.587-0.107 0.16-0.213 0.267-0.32 0.373-0.32 0.213-0.64 0.267-0.96 0-0.16-0.107-0.267-0.213-0.373-0.373-0.213-0.32-0.48-0.587-0.907-0.693-0.373-0.107-0.747-0.107-1.12-0.053-0.427 0.053-0.693 0.32-0.8 0.693-0.16 0.48-0.213 1.013-0.16 1.493 0.107 0.8 0.427 1.493 0.853 2.133 0.32 0.427 0.747 0.747 1.28 0.853 0.373 0.107 0.8 0.053 1.173-0.053 0.267-0.107 0.533-0.107 0.853 0 0.16 0.053 0.373 0.107 0.533 0.107 0.693 0.053 1.333-0.16 1.76-0.693 0.747-0.747 1.12-1.707 1.12-2.773zM13.28 11.2c0 0.053 0 0.053 0 0h0.427c0.16 0 0.213-0.053 0.267-0.213 0.053-0.213 0.053-0.427 0.107-0.64 0.053-0.533-0.107-1.067-0.213-1.6-0.16-0.533-0.373-1.013-0.747-1.44-0.213-0.213-0.373-0.427-0.64-0.587-0.16-0.107-0.373-0.16-0.587-0.16-0.533 0.053-0.96 0.267-1.333 0.64-0.32 0.373-0.48 0.8-0.48 1.333 0 0.107 0 0.213-0.053 0.267-0.107 0.427-0.427 0.747-0.853 0.693-0.16 0-0.267-0.053-0.427-0.107-0.267-0.107-0.533-0.16-0.8-0.16-0.747 0-1.28 0.32-1.707 0.907-0.16 0.267-0.213 0.587-0.16 0.853 0.053 0.107 0.107 0.213 0.213 0.213h6.987zM15.467 8.16c0 0.053 0 0.107 0.053 0.16 0.053 0.16 0.107 0.32 0.107 0.48 0.16 0.693 0.213 1.387 0.107 2.080 0 0.053 0 0.107-0.053 0.213 0 0.107 0 0.107 0.107 0.107h5.707c0.16 0 0.16 0 0.213-0.16 0.053-0.267 0.053-0.48 0.107-0.747 0.053-0.48 0-0.907-0.213-1.387-0.107-0.267-0.32-0.48-0.64-0.587-0.16-0.053-0.32-0.107-0.48-0.107-0.693-0.107-1.28 0.053-1.76 0.587-0.107 0.107-0.16 0.213-0.267 0.32s-0.213 0.267-0.32 0.32c-0.32 0.213-0.693 0.213-0.96-0.053l-0.32-0.32c-0.32-0.427-0.747-0.747-1.28-0.853 0.053-0.053 0-0.053-0.107-0.053z"></path>
</svg>
