<!-- Generated by IcoMoon.io -->
<svg version="1.1" xmlns="http://www.w3.org/2000/svg" width="32" height="32" viewBox="0 0 32 32">
<title>heart</title>
<path fill="#fea5b9" d="M13.653 29.333v-7.467c0-0.213-0.053-0.32-0.213-0.427-1.6-1.067-3.147-2.24-4.587-3.52-1.387-1.28-2.667-2.72-3.573-4.427-1.173-2.293-1.387-4.64-0.373-7.040 0.8-1.867 2.187-3.2 4.267-3.627 2.027-0.48 3.84 0.053 5.387 1.493 0.32 0.267 0.587 0.587 0.853 0.907 0.373 0.427 0.853 0.427 1.227 0 0.533-0.693 1.173-1.333 1.973-1.76 1.227-0.693 2.507-0.96 3.84-0.693 2.507 0.427 4.107 1.973 4.907 4.32 0.747 2.24 0.48 4.373-0.64 6.453-0.907 1.707-2.133 3.093-3.573 4.373-1.44 1.333-2.987 2.453-4.587 3.52-0.16 0.107-0.213 0.213-0.213 0.427v7.467h-4.693zM12.16 11.947c-0.053 0-0.053 0 0 0-0.053 0.267-0.053 0.533-0.053 0.747 0 0.533 0.32 0.907 0.8 0.907 0.427 0 0.747-0.373 0.747-0.853v-1.493c0.053-1.173 0.853-2.133 1.92-2.293 1.44-0.213 2.72 0.8 2.773 2.293v1.547c0 0.373 0.16 0.64 0.48 0.747 0.533 0.213 1.013-0.16 1.067-0.747v-1.547c0.053-1.013 0.48-1.707 1.387-2.133 0.907-0.373 1.707-0.267 2.453 0.373 0.533 0.427 0.747 1.013 0.8 1.707 0.053 0.48 0.32 0.8 0.747 0.8 0.213 0 0.373-0.053 0.427-0.267 0.107-0.427 0.267-0.907 0.32-1.333 0.213-1.867-0.16-3.52-1.493-4.907-1.387-1.44-3.627-1.707-5.333-0.587-0.48 0.32-0.907 0.693-1.227 1.173-1.013 1.387-2.987 1.387-3.947 0-0.053-0.107-0.107-0.16-0.213-0.267-0.533-0.587-1.12-1.067-1.867-1.333-2.080-0.693-4.32 0.16-5.333 2.133-0.853 1.653-0.907 3.307-0.373 5.067 0.107 0.32 0.267 0.373 0.587 0.32 0.373-0.107 0.533-0.373 0.587-0.853 0.107-1.173 0.96-2.080 2.133-2.24 1.12-0.107 2.187 0.587 2.453 1.707 0.107 0.48 0.107 0.907 0.16 1.333zM7.2 13.6c0.587 0.907 1.28 1.707 2.080 2.507 1.6 1.6 3.467 2.987 5.333 4.213 0.907 0.587 1.867 0.587 2.773 0l1.12-0.8c1.813-1.28 3.52-2.613 5.013-4.32 0.48-0.533 0.907-1.12 1.333-1.653-0.053-0.053-0.053-0.053-0.107-0.053-1.12-0.373-1.707-1.12-1.76-2.293 0-0.32-0.213-0.533-0.48-0.693-0.533-0.213-1.013 0.16-1.067 0.747v1.6c-0.053 1.28-1.067 2.293-2.347 2.293s-2.293-1.013-2.347-2.293v-1.547c0-0.16-0.053-0.373-0.107-0.533-0.16-0.267-0.533-0.427-0.853-0.32s-0.587 0.373-0.587 0.747v1.547c0 1.173-0.853 2.133-1.92 2.293-1.493 0.267-2.72-0.8-2.773-2.293v-1.547c0-0.32-0.16-0.587-0.427-0.693s-0.533-0.107-0.8 0.107c-0.213 0.16-0.267 0.427-0.267 0.693 0 0.64-0.267 1.227-0.8 1.653-0.32 0.32-0.693 0.48-1.013 0.64zM15.253 22.347v5.387h1.493v-5.387h-1.493z"></path>
</svg>
