<!-- Generated by IcoMoon.io -->
<svg version="1.1" xmlns="http://www.w3.org/2000/svg" width="32" height="32" viewBox="0 0 32 32">
<title>bucket</title>
<path fill="#fea5b9" d="M15.467 13.547h7.733c0.267 0 0.587 0 0.8 0.267 0.267 0.267 0.32 0.587 0.213 0.96-0.32 1.813-0.693 3.68-1.067 5.493-0.427 2.187-0.853 4.427-1.227 6.613-0.107 0.587-0.213 1.227-0.32 1.813-0.107 0.427-0.427 0.693-0.853 0.693h-10.56c-0.427 0-0.8-0.267-0.853-0.693-0.267-1.333-0.533-2.613-0.747-3.947-0.32-1.76-0.693-3.573-1.013-5.333-0.267-1.547-0.587-3.093-0.853-4.64-0.16-0.747 0.213-1.173 1.013-1.173 2.56-0.107 5.12-0.053 7.733-0.053zM9.547 20.32c0 0.16 0.053 0.213 0.053 0.32l1.28 6.72c0.053 0.16 0.107 0.213 0.267 0.213h8.693c0.16 0 0.267-0.053 0.267-0.213 0.267-1.547 0.587-3.040 0.853-4.587 0.16-0.8 0.32-1.6 0.48-2.453-1.76 1.493-3.733 2.080-5.92 2.080-2.24 0-4.213-0.587-5.973-2.080zM8.693 15.307v0.16c0 0.16 0.053 0.267 0.053 0.427 0.48 2.027 1.76 3.413 3.627 4.16 1.973 0.8 4 0.8 5.973 0.053 1.76-0.64 2.987-1.867 3.573-3.68 0.107-0.373 0.16-0.747 0.267-1.12h-13.493zM8.8 5.76c-0.16-0.373-0.373-0.747-0.48-1.067-0.107-0.373-0.16-0.747-0.16-1.173 0-0.48 0.373-0.853 0.853-0.853h12.907c0.48 0 0.853 0.373 0.853 0.853 0 0.693-0.107 1.387-0.533 1.973-0.053 0.053-0.107 0.16-0.107 0.16 0.213 0.32 0.48 0.587 0.64 0.907 0.427 0.8 0.32 1.813-0.267 2.507s-1.493 0.96-2.347 0.747c-0.427-0.107-0.747-0.373-1.067-0.693-0.107-0.107-0.16-0.107-0.32-0.053-0.32 0.16-0.587 0.267-0.907 0.373-0.107 0.053-0.16 0.107-0.16 0.267 0 0.533 0 1.013-0.16 1.493-0.427 1.28-1.973 1.92-3.147 1.28-0.853-0.48-1.227-1.173-1.28-2.133v-0.64c0-0.16-0.053-0.213-0.16-0.267-0.32-0.107-0.587-0.267-0.907-0.373-0.107-0.053-0.213-0.053-0.32 0.053-0.32 0.32-0.693 0.587-1.12 0.693-1.44 0.427-2.933-0.853-2.827-2.347 0.053-0.64 0.32-1.12 0.693-1.547 0.213-0.053 0.267-0.107 0.32-0.16zM20.853 4.427h-10.773c0.213 0.32 0.373 0.587 0.533 0.853 0.267 0.48 0.267 0.853-0.107 1.227-0.213 0.213-0.427 0.427-0.64 0.693-0.16 0.16-0.213 0.32-0.16 0.533 0.053 0.427 0.533 0.587 0.853 0.32 0.267-0.213 0.48-0.48 0.693-0.693 0.373-0.373 0.747-0.427 1.12-0.16 0.587 0.373 1.227 0.64 1.867 0.853 0.533 0.16 0.693 0.427 0.747 1.013v1.333c0 0.32 0.16 0.533 0.373 0.64 0.373 0.107 0.693-0.16 0.693-0.587v-1.333c0-0.64 0.16-0.907 0.8-1.067s1.227-0.427 1.813-0.8c0.427-0.267 0.8-0.213 1.173 0.16 0.213 0.213 0.427 0.427 0.587 0.64 0.16 0.16 0.32 0.213 0.48 0.213 0.213-0.053 0.373-0.16 0.427-0.32 0.107-0.213 0.053-0.427-0.107-0.587-0.213-0.267-0.48-0.48-0.693-0.747-0.107-0.107-0.213-0.267-0.267-0.373-0.107-0.32-0.053-0.587 0.107-0.853 0.107-0.373 0.32-0.64 0.48-0.96z"></path>
</svg>
