<svg aria-hidden="true" style="position:absolute;width:0;height:0;overflow:hidden" xmlns="http://www.w3.org/2000/svg">
  <defs>
    <symbol id="icon-facebook" viewBox="0 0 16 32">
      <path d="M14.143 15.972h-4.034v14.865H3.997V15.972H1.09v-5.224h2.907V7.367c0-2.418 1.142-6.203 6.166-6.203l4.527.019v5.071h-3.285c-.539 0-1.296.271-1.296 1.424v3.075h4.567l-.534 5.219z"/>
    </symbol>
    <symbol id="icon-telegram" viewBox="0 0 44 32">
      <path d="m17.343 21.048-.675 8.86c.966 0 1.384-.387 1.885-.852l4.527-4.038 9.381 6.412c1.72.895 2.933.424 3.397-1.477l6.157-26.929.002-.002c.546-2.374-.92-3.302-2.596-2.72L3.227 13.235c-2.47.895-2.433 2.18-.42 2.762l9.253 2.686L33.554 6.131c1.011-.625 1.931-.279 1.175.346l-17.386 14.57z"/>
    </symbol>
    <symbol id="icon-github" viewBox="0 0 32 32">
      <path d="M16 0C7.212 0 0 7.212 0 16c0 7.499 5.262 14.312 12.25 16v-5.293c-.692.152-1.33.156-2.034-.052-.946-.279-1.714-.909-2.284-1.869-.364-.613-1.008-1.278-1.68-1.23l-.165-1.868c1.453-.124 2.711.886 3.457 2.14.332.558.713.884 1.203 1.029.473.14.982.072 1.574-.137.149-1.186.692-1.63 1.102-2.255v-.001c-4.167-.622-5.828-2.832-6.488-4.578-.874-2.317-.405-5.212 1.14-7.041.03-.036.084-.129.063-.194-.708-2.139.155-3.909.187-4.097.817.242.95-.243 3.551 1.337l.449.27c.188.112.129.048.317.034A13.544 13.544 0 0 1 16 7.723c1.136.015 2.273.178 3.404.484l.145.015c-.013-.002.04-.009.127-.062 3.248-1.968 3.132-1.324 4.003-1.608.032.188.883 1.987.182 4.099-.095.291 2.816 2.956 1.203 7.235-.659 1.746-2.32 3.957-6.487 4.578v.001c.534.814 1.176 1.247 1.173 2.927V32C26.738 30.312 32 23.499 32 16c0-8.788-7.212-16-16-16z"/>
    </symbol>
    <symbol id="icon-logo" viewBox="0 0 32 32">
      <path fill="#d41443" d="M29.493 16.853c0 7.364-5.97 13.333-13.333 13.333S2.827 24.216 2.827 16.853c0-7.364 5.97-13.333 13.333-13.333s13.333 5.97 13.333 13.333z"/>
      <path fill="none" stroke="#fff" style="stroke:var(--color1, #fff)" stroke-linejoin="round" stroke-miterlimit="10" stroke-width="1.6" d="M23.893 17.227H8.426c-.8 0-1.44.64-1.44 1.44s.64 1.44 1.44 1.44h8.64v2.56c0 .8.64 1.44 1.44 1.44s1.44-.64 1.44-1.44v-2.56h3.947c.8 0 1.44-.64 1.44-1.44 0-.747-.64-1.44-1.44-1.44zM9.173 17.493v-3.84"/>
      <path fill="none" stroke="#fff" style="stroke:var(--color1, #fff)" stroke-linejoin="round" stroke-miterlimit="10" stroke-width="1.6" d="M23.147 20.427v4.107c0 1.227-1.013 2.293-2.293 2.293h-9.44c-1.227 0-2.293-1.013-2.293-2.293v-4.587M23.147 13.707v3.84M12.16 26.827v3.093M19.893 26.827v3.093M9.173 14.293c0-3.84 3.147-6.987 6.987-6.987s6.987 3.147 6.987 6.987"/>
      <path fill="none" stroke="#fff" style="stroke:var(--color1, #fff)" stroke-linejoin="round" stroke-miterlimit="10" stroke-width="1.6" d="M21.387 9.6c0 1.973-2.347 3.52-5.28 3.52s-5.28-1.6-5.28-3.52"/>
    </symbol>
    <symbol id="icon-button-bracket">
      <path fill="none" d="m1.616 1 4.428 4-4.428 4" stroke-width="2" stroke-linecap="round" stroke-linejoin="round"/>
      </symbol>
      <symbol id="icon-home" viewBox="0 0 13 12">
      <path d="M12.8449 5.85484C13.0696 5.60772 13.0479 5.22897 12.7964 5.00908L7.25687 0.161935C7.00543 -0.0579491 6.60231 -0.0533429 6.35616 0.172319L0.797761 5.26751C0.551613 5.49318 0.539532 5.87145 0.771013 6.11206L0.91037 6.25719C1.14157 6.49781 1.51527 6.52649 1.74453 6.32107L2.15994 5.94907V11.3953C2.15994 11.7295 2.43069 12 2.7646 12H4.93127C5.26518 12 5.53594 11.7295 5.53594 11.3953V7.58515H8.29956V11.3953C8.29475 11.7292 8.53367 11.9998 8.86757 11.9998H11.1637C11.4976 11.9998 11.7684 11.7292 11.7684 11.3951V6.02575C11.7684 6.02575 11.8831 6.12628 12.0247 6.25069C12.166 6.37485 12.4627 6.2753 12.6874 6.02794L12.8449 5.85484Z"/>
      </symbol>
      <symbol id="icon-ellipse" viewBox="0 0 12 12">
      <circle cx="6" cy="6" r="6"/>
      </symbol>
      <symbol id="icon-close-modal-window" viewBox="0 0 32 32">
      <path d="M26.667 7.303l-1.97-1.97-7.808 7.808-7.808-7.808-1.97 1.97 7.808 7.808-7.808 7.808 1.97 1.97 7.808-7.808 7.808 7.808 1.97-1.97-7.808-7.808 7.808-7.808z"></path>
      </symbol>
    <symbol id="icon-person-modal-window" viewBox="0 0 32 32">
      <path d="M16 16c2.946 0 5.333-2.388 5.333-5.333s-2.388-5.333-5.333-5.333v0c-2.946 0-5.333 2.388-5.333 5.333s2.388 5.333 5.333 5.333v0zM16 18.667c-3.561 0-10.667 1.787-10.667 5.333v1.333c0 0.732 0.599 1.333 1.333 1.333h18.667c0.732 0 1.333-0.601 1.333-1.333v-1.333c0-3.547-7.108-5.333-10.667-5.333z"></path>
      </symbol>
    <symbol id="icon-phone-modal-window" viewBox="0 0 32 32">
      <path d="M24.882 19.774l-3.268-0.373c-0.090-0.011-0.194-0.018-0.3-0.018-0.707 0-1.347 0.287-1.81 0.75l-2.368 2.368c-3.669-1.894-6.585-4.81-8.427-8.372l-0.051-0.108 2.382-2.377c0.463-0.463 0.75-1.103 0.75-1.81 0-0.106-0.006-0.21-0.019-0.312l0.001 0.012-0.373-3.243c-0.155-1.287-1.24-2.276-2.557-2.276-0.001 0-0.002 0-0.003 0h-2.226c-1.454 0-2.663 1.209-2.574 2.661 0.683 10.987 9.47 19.762 20.444 20.444 1.452 0.089 2.663-1.12 2.663-2.574v-2.226c0-0.004 0-0.008 0-0.012 0-1.308-0.985-2.386-2.253-2.532l-0.012-0.001z"></path>
      </symbol>
    <symbol id="icon-email-modal-window" viewBox="0 0 32 32">
      <path d="M26.667 5.333h-21.333c-1.467 0-2.652 1.2-2.652 2.667l-0.014 16c0 1.467 1.2 2.667 2.667 2.667h21.333c1.467 0 2.667-1.2 2.667-2.667v-16c0-1.467-1.2-2.667-2.667-2.667zM26.133 11.001l-9.426 5.892c-0.201 0.126-0.446 0.2-0.708 0.2s-0.506-0.075-0.713-0.204l0.006 0.003-9.426-5.892c-0.336-0.201-0.557-0.562-0.557-0.975 0-0.625 0.507-1.132 1.132-1.132 0.233 0 0.449 0.070 0.629 0.19l-0.004-0.003 8.933 5.586 8.933-5.588c0.176-0.118 0.392-0.188 0.624-0.188 0.625 0 1.132 0.507 1.132 1.132 0 0.413-0.221 0.775-0.552 0.972l-0.005 0.003z"></path>
      </symbol>
    <symbol id="icon-ice-cream-modal-window" viewBox="0 0 16 32">
      <path d="M6.94 32h1.706l6.37-16.065c-6.081 0.042-8.737-0.247-14.169 0l6.094 16.065zM11.143 5.148c-0.063-0.701-0.693-1.185-1.263-1.622-0.266-0.203-0.518-0.398-0.729-0.617-0.542-0.565-0.75-1.174-0.044-2.031-0.555-0.125-1.102-0.135-1.609-0.044-0.552 0.102-1.060 0.323-1.479 0.654-0.417 0.328-0.75 0.763-0.956 1.292-0.24 0.612-0.31 1.346-0.148 2.19 0.039 0.208-0.102 0.411-0.318 0.448h-0.013c-0.315 0.047-0.602 0.138-0.852 0.263-0.477 0.242-0.836 0.617-1.052 1.070-0.219 0.461-0.294 1.008-0.206 1.589 0.057 0.372 0.185 0.758 0.388 1.141 0.099 0.19 0.023 0.422-0.169 0.521-0.029 0.016-0.057 0.026-0.089 0.031-0.586 0.161-1.044 0.44-1.354 0.797-0.214 0.245-0.357 0.529-0.422 0.831-0.065 0.31-0.055 0.643 0.044 0.987 0.159 0.56 0.542 1.146 1.177 1.703h12.25c0.547-0.289 0.917-0.688 1.135-1.138 0.24-0.492 0.299-1.047 0.214-1.586-0.089-0.547-0.331-1.073-0.693-1.5-0.385-0.453-0.906-0.792-1.529-0.914-0.008 0-0.013-0.003-0.021-0.005-0.513 0.148-1.091 0.398-1.701 0.664-1.794 0.779-3.844 1.667-5.779 0.703-0.195-0.096-0.271-0.331-0.172-0.521s0.336-0.266 0.531-0.169c1.602 0.799 3.466-0.010 5.102-0.721 0.63-0.273 1.229-0.534 1.792-0.695 0.146-0.784 0.057-1.375-0.211-1.815-0.26-0.424-0.708-0.727-1.292-0.938-0.638 0.549-1.333 0.938-2.021 1.128-0.721 0.198-1.438 0.174-2.081-0.104-0.198-0.086-0.289-0.315-0.201-0.51s0.323-0.281 0.521-0.195c0.466 0.203 1 0.216 1.549 0.065 0.57-0.151 1.151-0.479 1.698-0.948v0zM6.042 3.841c0.169 0 0.307 0.135 0.307 0.302s-0.138 0.302-0.307 0.302c-0.169 0-0.307-0.135-0.307-0.302 0-0.169 0.138-0.302 0.307-0.302v0zM7.958 11.88c0.193 0 0.349 0.154 0.349 0.341 0 0.19-0.156 0.341-0.349 0.341s-0.349-0.154-0.349-0.341c0-0.188 0.156-0.341 0.349-0.341v0zM3.565 11.273c0.193 0 0.349 0.154 0.349 0.341 0 0.19-0.156 0.341-0.349 0.341s-0.349-0.154-0.349-0.341c0-0.188 0.156-0.341 0.349-0.341v0zM13.474 11.602c0.193 0 0.349 0.154 0.349 0.341 0 0.19-0.156 0.341-0.349 0.341s-0.349-0.154-0.349-0.341c0-0.188 0.156-0.341 0.349-0.341v0zM6.313 12.878c-0.068-0.081-0.057-0.201 0.023-0.268s0.203-0.057 0.273 0.023l0.448 0.521c0.068 0.081 0.057 0.201-0.023 0.268s-0.203 0.057-0.273-0.023l-0.448-0.521zM1.919 12.271c-0.070-0.081-0.057-0.201 0.023-0.268s0.203-0.057 0.273 0.023l0.448 0.521c0.068 0.081 0.057 0.201-0.023 0.268s-0.203 0.057-0.273-0.023l-0.448-0.521zM11.828 12.602c-0.068-0.081-0.057-0.201 0.023-0.268s0.203-0.057 0.273 0.023l0.448 0.521c0.068 0.081 0.057 0.201-0.023 0.268s-0.203 0.057-0.273-0.023l-0.448-0.521zM10.37 2.919c0.68 0.521 1.427 1.096 1.549 2.063 0.763 0.268 1.362 0.677 1.729 1.276 0.362 0.589 0.49 1.341 0.32 2.299 0.641 0.206 1.18 0.591 1.594 1.078 0.453 0.534 0.755 1.19 0.867 1.872 0.112 0.688 0.034 1.401-0.279 2.039-0.297 0.612-0.805 1.148-1.549 1.523-0.060 0.036-0.13 0.055-0.206 0.055h-12.492c-0.091 0-0.18-0.031-0.255-0.091-0.831-0.688-1.328-1.445-1.536-2.177-0.133-0.466-0.146-0.924-0.055-1.349 0.094-0.432 0.294-0.831 0.591-1.172 0.328-0.378 0.773-0.69 1.323-0.901-0.135-0.331-0.227-0.659-0.279-0.979-0.115-0.729-0.013-1.43 0.273-2.029 0.289-0.607 0.768-1.107 1.404-1.43 0.219-0.109 0.453-0.201 0.706-0.266-0.104-0.839-0.005-1.589 0.245-2.229 0.258-0.659 0.674-1.206 1.201-1.617 0.523-0.409 1.151-0.688 1.833-0.81 0.826-0.151 1.727-0.078 2.612 0.253 0.055 0.021 0.104 0.052 0.146 0.096 0.148 0.156 0.141 0.398-0.018 0.547-0.747 0.685-0.688 1.078-0.37 1.411 0.169 0.169 0.401 0.349 0.646 0.536v0zM6.859 28.214l-0.599-1.615 3.815-0.867-0.742 1.919-2.474 0.563zM5.633 24.904l-0.599-1.615 6.565-1.49-0.742 1.919-5.224 1.185zM4.406 21.596l-0.599-1.615 9.315-2.115-0.742 1.919-7.974 1.81z"></path>
      </symbol>
  </defs>
</svg>
