<?xml version="1.0" encoding="utf-8"?>
<!-- Generator: Adobe Illustrator 22.0.1, SVG Export Plug-In . SVG Version: 6.00 Build 0)  -->
<svg version="1.1" id="Слой_1" xmlns="http://www.w3.org/2000/svg" xmlns:xlink="http://www.w3.org/1999/xlink" x="0px" y="0px"
	 viewBox="0 0 60 60" style="enable-background:new 0 0 60 60;" xml:space="preserve">
<style type="text/css">
	.st0{fill:#d41443;}
	.st1{clip-path:url(#SVGID_2_);}
	.st2{fill:none;stroke:#FFFFFF;stroke-width:3;stroke-linejoin:round;stroke-miterlimit:10;}
</style>
<circle class="st0" cx="30.3" cy="31.6" r="25"/>
<g>
	<defs>
		<circle id="SVGID_1_" cx="30.3" cy="33.1" r="23.6"/>
	</defs>
	<clipPath id="SVGID_2_">
		<use xlink:href="#SVGID_1_"  style="overflow:visible;"/>
	</clipPath>
	<g class="st1">
		<path class="st2" d="M44.8,32.3h-29c-1.5,0-2.7,1.2-2.7,2.7c0,1.5,1.2,2.7,2.7,2.7H32v4.8c0,1.5,1.2,2.7,2.7,2.7
			c1.5,0,2.7-1.2,2.7-2.7v-4.8h7.4c1.5,0,2.7-1.2,2.7-2.7C47.5,33.6,46.3,32.3,44.8,32.3z"/>
		<g>
			<line class="st2" x1="17.2" y1="32.8" x2="17.2" y2="25.6"/>
		</g>
		<g>
			<path class="st2" d="M43.4,38.3V46c0,2.3-1.9,4.3-4.3,4.3H21.4c-2.3,0-4.3-1.9-4.3-4.3v-8.6"/>
		</g>
		<g>
			<line class="st2" x1="43.4" y1="25.7" x2="43.4" y2="32.9"/>
		</g>
		<line class="st2" x1="22.8" y1="50.3" x2="22.8" y2="56.1"/>
		<line class="st2" x1="37.3" y1="50.3" x2="37.3" y2="56.1"/>
		<path class="st2" d="M17.2,26.8c0-7.2,5.9-13.1,13.1-13.1s13.1,5.9,13.1,13.1"/>
		<path class="st2" d="M40.1,18c0,3.7-4.4,6.6-9.9,6.6s-9.9-3-9.9-6.6"/>
	</g>
</g>
</svg>
